<?xml version="1.0" encoding="utf-8"?><svg xmlns="http://www.w3.org/2000/svg"><symbol viewBox="0 0 24 24" id="basket"><path d="M14 4l6 6-1.372 9H5.372L4 10l6-6"/><path stroke-linecap="round" d="M4 10h16"/></symbol><symbol viewBox="0 0 24 24" id="accessibility"><path d="M2 16L2.8 14M6 16L5.2 14M5.2 14L4 11L2.8 14M5.2 14H2.8"/><path d="M20 13L22 10M20 13L18 10M20 13L20 16"/><path d="M8 12L10 10V16"/><path d="M13 12L15 10V16"/></symbol><symbol viewBox="0 0 24 24" id="accessibility-human"><circle cx="12" cy="3" r="1"/><path d="M16 21L12 13M12 13V7M12 13L8 21M12 7L18 9M12 7L6 9"/></symbol><symbol viewBox="0 0 24 24" id="activity"><polyline points="21 14 18 14 15 7 10 17 7 11 5 14 3 14"/></symbol><symbol viewBox="0 0 24 24" id="add"><path d="M17 12L7 12M12 17L12 7"/><circle cx="12" cy="12" r="10"/></symbol><symbol viewBox="0 0 24 24" id="add-to-list"><path d="M6 10H18"/><path d="M6 6H18"/><path d="M6 14H10"/><path d="M14 16H18"/><path d="M16 14L16 18"/><path d="M6 18H10"/></symbol><symbol viewBox="0 0 24 24" id="alarm"><circle cx="12" cy="13" r="9"/><polyline points="12 8 12 13 15 16"/><path d="M19 2L22 5M2 5L5 2"/></symbol><symbol viewBox="0 0 24 24" id="align-center"><path d="M8 10L16 10M6 6L18 6M6 14L18 14M8 18L16 18"/></symbol><symbol viewBox="0 0 24 24" id="arrow-left-top"><path d="M5 13V5h8"/><path stroke-linecap="round" d="M5 5l1 1"/><path d="M6 6l13 13"/></symbol><symbol viewBox="0 0 24 24" id="arrow-left"><path d="M9 6l-6 6 6 6"/><path d="M21 12H4"/><path stroke-linecap="round" d="M3 12h1"/></symbol><symbol viewBox="0 0 24 24" id="arrow-right-bottom"><path d="M19 11v8h-8"/><path stroke-linecap="round" d="M19 19l-1-1"/><path d="M18 18L5 5"/></symbol><symbol viewBox="0 0 24 24" id="align-left"><path d="M6 10L14 10M6 6L18 6M6 14L18 14M6 18L14 18"/></symbol><symbol viewBox="0 0 24 24" id="align-right"><path d="M10 10h8M6 6h12M6 14h12m-8 4h8"/></symbol><symbol viewBox="0 0 24 24" id="anchor"><path d="M12 20L12 7M9 10L15 10"/><circle cx="12" cy="5" r="2"/><path d="M20,14 C18.6666667,18 16,20 12,20 C8,20 5.33333333,18 4,14"/></symbol><symbol viewBox="0 0 24 24" id="aperture"><path d="M12 22C17.5228 22 22 17.5228 22 12C22 6.47715 17.5228 2 12 2C6.47715 2 2 6.47715 2 12C2 17.5228 6.47715 22 12 22Z"/><g stroke-linecap="round">
        <path d="M3 16H14.3164"/>
        <path d="M4.03589 6.20575L9.68257 15.9861"/>
        <path d="M13.0359 2.20575L7.37891 12.004"/>
        <path d="M10.9641 21.7942L16.6146 12.0074"/>
        <path d="M19.9641 17.7942L14.3086 7.99866"/>
        <path d="M21 7.98721H9.71844"/>
    </g></symbol><symbol viewBox="0 0 24 24" id="apps"><circle cx="6" cy="6" r="1"/><circle cx="12" cy="6" r="1"/><circle cx="18" cy="6" r="1"/><circle cx="6" cy="12" r="1"/><circle cx="12" cy="12" r="1"/><circle cx="18" cy="12" r="1"/><circle cx="6" cy="18" r="1"/><circle cx="12" cy="18" r="1"/><circle cx="18" cy="18" r="1"/></symbol><symbol viewBox="0 0 24 24" id="apps-alt"><rect x="5" y="5" width="2" height="2"/><rect x="11" y="5" width="2" height="2"/><rect x="17" y="5" width="2" height="2"/><rect x="5" y="11" width="2" height="2"/><rect x="11" y="11" width="2" height="2"/><rect x="17" y="11" width="2" height="2"/><rect x="5" y="17" width="2" height="2"/><rect x="11" y="17" width="2" height="2"/><rect x="17" y="17" width="2" height="2"/></symbol><symbol viewBox="0 0 24 24" id="arrow-down"><path d="M6 15l6 6 6-6"/><path d="M12 3v17"/><path stroke-linecap="round" d="M12 21v-1"/></symbol><symbol viewBox="0 0 24 24" id="arrow-left-bottom"><path d="M5 11v8h8"/><path stroke-linecap="round" d="M5 19l1-1"/><path d="M6 18L19 5"/></symbol><symbol viewBox="0 0 24 24" id="bag"><rect width="14" height="12" x="5" y="7"/><path d="M8 7a4 4 0 1 1 8 0"/></symbol><symbol viewBox="0 0 24 24" id="back"><path d="M14 14.74L21 19V5l-7 4.26V5L2 12l12 7v-4.26z"/></symbol><symbol viewBox="0 0 24 24" id="back-right"><path d="M19,17 L19,15 C19,10.0294373 15.1944204,6 10.5,6 C5.80557963,6 2,10.0294373 2,15"/><polyline points="16 15 19 18 22 15"/></symbol><symbol viewBox="0 0 24 24" id="back-left"><path d="M5,17 L5,15 C5,10.0294373 8.80557963,6 13.5,6 C18.1944204,6 22,10.0294373 22,15"/><polyline points="8 15 5 18 2 15"/></symbol><symbol viewBox="0 0 24 24" id="back-alt"><path d="M4 12l15-9v18z"/></symbol><symbol viewBox="0 0 24 24" id="arrow-up-circle"><path d="M9 10.5l3-3 3 3"/><path d="M12 16.5V9"/><path stroke-linecap="round" d="M12 7.5V9"/><circle cx="12" cy="12" r="10"/></symbol><symbol viewBox="0 0 24 24" id="arrow-right-circle"><path d="M13.5 9l3 3-3 3"/><path d="M7.5 12H15"/><path stroke-linecap="round" d="M16.5 12H15"/><circle cx="12" cy="12" r="10"/></symbol><symbol viewBox="0 0 24 24" id="arrow-left-circle"><path d="M10.5 15l-3-3 3-3"/><path d="M16.5 12H9"/><path stroke-linecap="round" d="M7.5 12H9"/><circle cx="12" cy="12" r="10"/></symbol><symbol viewBox="0 0 24 24" id="arrow-down-circle"><path d="M15 13.5l-3 3-3-3"/><path d="M12 15V7.5"/><path stroke-linecap="round" d="M12 16.5V15v1.5z"/><circle cx="12" cy="12" r="10"/></symbol><symbol viewBox="0 0 24 24" id="arrow-up"><path d="M18 9l-6-6-6 6"/><path d="M12 21V4"/><path stroke-linecap="round" d="M12 3v1"/></symbol><symbol viewBox="0 0 24 24" id="arrow-right"><path d="M15 18l6-6-6-6"/><path d="M3 12h17"/><path stroke-linecap="round" d="M21 12h-1"/></symbol><symbol viewBox="0 0 24 24" id="arrow-right-top"><path d="M19 13V5h-8"/><path stroke-linecap="round" d="M19 5l-1 1"/><path d="M18 6L5 19"/></symbol><symbol viewBox="0 0 24 24" id="basketball"><g stroke-linecap="butt">
        <path d="M3.00476 7.71673C6.03818 6.81589 9.99791 7.74841 13.2448 10.4315C16.5425 13.1566 18.2053 16.9442 17.8244 20.1241"/>
        <path d="M10.102 21.7996C9.33937 19.3589 10.0106 15.6137 12.0776 12.0335C14.1385 8.46402 17.0351 6.01413 19.5251 5.44463"/>
        <path d="M11.4419 2C11.2615 3.94419 10.5157 6.2298 9.22541 8.46468C7.29158 11.8142 4.64753 14.1615 2.40135 14.7854"/>
    </g><circle cx="12" cy="12" r="10"/></symbol><symbol viewBox="0 0 24 24" id="battery-alt"><path d="M14 3h-4"/><path d="M6 4v17h12V4z"/></symbol><symbol viewBox="0 0 24 24" id="battery-charging"><path d="M21 14v-4"/><path d="M20 6H4v12h16z"/><polyline points="12 9 14 12 10 12 12 15"/></symbol><symbol viewBox="0 0 24 24" id="battery-full"><path d="M21 14v-4"/><path d="M20 6H4v12h16z"/><path d="M12 14v-4m4 4v-4m-8 4v-4"/></symbol><symbol viewBox="0 0 24 24" id="bell"><path stroke-linejoin="round" d="M10.5,4.5 C12.1666667,4.5 13.8333333,4.5 15.5,4.5 C17.5,4.5 18.8333333,3.83333333 19.5,2.5 L19.5,18.5 C18.8333333,17.1666667 17.5,16.5 15.5,16.5 C13.8333333,16.5 12.1666667,16.5 10.5,16.5 L10.5,16.5 C7.1862915,16.5 4.5,13.8137085 4.5,10.5 L4.5,10.5 C4.5,7.1862915 7.1862915,4.5 10.5,4.5 Z" transform="rotate(90 12 10.5)"/><path d="M11,21 C12.1045695,21 13,20.1045695 13,19 C13,17.8954305 12.1045695,17 11,17" transform="rotate(90 12 19)"/></symbol><symbol viewBox="0 0 24 24" id="bluetooth"><polyline points="7 17 17 7 12 2 12 22 17 17 7 7"/></symbol><symbol viewBox="0 0 24 24" id="bolt"><path d="M5 14l8-11v7h5l-8 11v-7z"/></symbol><symbol viewBox="0 0 24 24" id="car-alt"><path d="M3 12L5 7H7M3 12H2V17H3M3 12H7M18 12L16 7H12M18 12H20C21.1046 12 22 12.8954 22 14V17H20M18 12H12M7 17H16M7 7V12M7 7H12M7 12H12M12 12V7"/><circle cx="5" cy="17" r="2"/><circle cx="18" cy="17" r="2"/></symbol><symbol viewBox="0 0 24 24" id="car"><path d="M5 11L7 5H17L19 11M5 11H19M5 11V17M19 11V17M5 17V19H6V17M5 17H6M19 17V19H18V17M19 17H18M6 17H18"/><circle cx="8" cy="14" r="1"/><circle cx="16" cy="14" r="1"/></symbol><symbol viewBox="0 0 24 24" id="cancel"><path d="M15.5355339 15.5355339L8.46446609 8.46446609M15.5355339 8.46446609L8.46446609 15.5355339"/><path d="M4.92893219,19.0710678 C1.02368927,15.1658249 1.02368927,8.83417511 4.92893219,4.92893219 C8.83417511,1.02368927 15.1658249,1.02368927 19.0710678,4.92893219 C22.9763107,8.83417511 22.9763107,15.1658249 19.0710678,19.0710678 C15.1658249,22.9763107 8.83417511,22.9763107 4.92893219,19.0710678 Z"/></symbol><symbol viewBox="0 0 24 24" id="bug"><path d="M15 6.99989086C16.1045695 6.99989086 17 7.89532136 17 8.99989086L17 16.458686C17 17.1113133 16.6815784 17.722892 16.1469254 18.0971494L12 21 7.85307456 18.0971494C7.31842164 17.722892 7 17.1113133 7 16.458686L7 8.99989086C7 7.89532136 7.8954305 6.99989086 9 6.99989086 9.00005899 5.34308677 10.3431821 4 12 4 13.6568179 4 14.999941 5.34308677 15 6.99989086zM4 13L7 13"/><polyline points="3 7 5 9 7 9"/><polyline points="21 7 19 9 17 9"/><polyline points="3 19 5 17 7 17"/><polyline points="17 17 19 17 21 19 21 19"/><path d="M17,13 L20,13"/></symbol><symbol viewBox="0 0 24 24" id="brightness"><path d="M15 6L12 3L9.00001 6H6.00001V9L3 12L6.00001 15V18H8.99999L12 21L15 18H18V15L21 12L18 9V6H15Z"/><path d="M16 12C16 9.79086 14.2091 8 12 8V16C14.2091 16 16 14.2091 16 12Z"/></symbol><symbol viewBox="0 0 24 24" id="box-alt2"><rect x="5" y="9" width="14" height="11"/><rect width="16" height="4" transform="matrix(1 0 0 -1 4 9)"/></symbol><symbol viewBox="0 0 24 24" id="hamburger"><path d="M6 7L18 7M6 12L18 12M6 17L18 17"/></symbol><symbol viewBox="0 0 24 24" id="justify"><path d="M6 10L18 10M6 6L18 6M6 14L18 14M6 18L18 18"/></symbol><symbol viewBox="0 0 24 24" id="film"><path stroke-linecap="round" d="M16 10.087l5-1.578v7.997l-4.998-1.578"/><path d="M16 7H3v11h13z"/></symbol><symbol viewBox="0 0 24 24" id="mute"><path d="M18 10L22 14M18 14L22 10"/><path d="M13 5v14l-5-4H3V9h5z"/><path stroke-linecap="round" d="M13 14c1.5-1 1.5-3 0-4"/></symbol><symbol viewBox="0 0 24 24" id="shuffle"><path d="M21 16.0399H17.7707C15.8164 16.0399 13.9845 14.9697 12.8611 13.1716L10.7973 9.86831C9.67384 8.07022 7.84196 7 5.88762 7L3 7"/><path d="M21 7H17.7707C15.8164 7 13.9845 8.18388 12.8611 10.1729L10.7973 13.8271C9.67384 15.8161 7.84196 17 5.88762 17L3 17"/><path d="M19 4L22 7L19 10"/><path d="M19 13L22 16L19 19"/></symbol><symbol viewBox="0 0 24 24" id="rss"><line x1="6" y1="18" x2="6" y2="18" stroke-linecap="round"/><path d="M10 18C10 15.790861 8.209139 14 6 14M14 18C14 13.581722 10.418278 10 6 10M18 18C18 11.372583 12.627417 6 6 6"/></symbol><symbol viewBox="0 0 24 24" id="star"><polygon points="12 17.844 6.183 20.902 7.294 14.425 2.588 9.838 9.092 8.893 12 3 14.908 8.893 21.412 9.838 16.706 14.425 17.817 20.902"/></symbol><symbol viewBox="0 0 24 24" id="eye-crossed"><path d="M22 12C22 12 19 18 12 18C5 18 2 12 2 12C2 12 5 6 12 6C19 6 22 12 22 12Z"/><circle cx="12" cy="12" r="3"/><path d="M3 21L20 4"/></symbol><symbol viewBox="0 0 24 24" id="eye"><path d="M22 12C22 12 19 18 12 18C5 18 2 12 2 12C2 12 5 6 12 6C19 6 22 12 22 12Z"/><circle cx="12" cy="12" r="3"/></symbol><symbol viewBox="0 0 24 24" id="mask"><path fill-rule="evenodd" clip-rule="evenodd" d="M12 22C17.5228 22 22 17.5228 22 12C22 6.47715 17.5228 2 12 2C6.47715 2 2 6.47715 2 12C2 17.5228 6.47715 22 12 22Z"/><path d="M8 2.83209C11.5318 4.37521 14 7.89937 14 12C14 16.1006 11.5318 19.6248 8 21.1679"/></symbol><symbol viewBox="0 0 24 24" id="maximise"><polyline points="21 16 21 21 16 21"/><polyline points="8 21 3 21 3 16"/><polyline points="16 3 21 3 21 8"/><polyline points="3 8 3 3 8 3"/></symbol><symbol viewBox="0 0 24 24" id="microphone"><path d="M17 12C17 14.7614237 14.7614237 17 12 17 9.23857625 17 7 14.7614237 7 12M12 17L12 21"/><rect width="4" height="10" x="10" y="4" rx="2"/></symbol><symbol viewBox="0 0 24 24" id="music"><polyline stroke-linecap="round" points="8 18 8 6 20 3 20 16"/><path d="M5.9470822 20.5104863C4.47941733 21.0446727 3.00094415 20.6845313 2.64481994 19.706088 2.28869572 18.7276448 3.18977746 17.5014162 4.65744233 16.9672299 6.1251072 16.4330436 7.60358037 16.793185 7.95970459 17.7716282 8.31582881 18.7500715 7.41474707 19.9763 5.9470822 20.5104863zM17.9470822 18.5104863C16.4794173 19.0446727 15.0009442 18.6845313 14.6448199 17.706088 14.2886957 16.7276448 15.1897775 15.5014162 16.6574423 14.9672299 18.1251072 14.4330436 19.6035804 14.793185 19.9597046 15.7716282 20.3158288 16.7500715 19.4147471 17.9763 17.9470822 18.5104863z"/></symbol><symbol viewBox="0 0 24 24" id="lock-alt-open"><path d="M7,7.625 L7,7 C7,4.23857625 9.23857625,2 12,2 L12,2 C14.7614237,2 17,4.23857625 17,7 L17,11"/><rect width="14" height="10" x="5" y="11"/><circle cx="12" cy="16" r="1"/></symbol><symbol viewBox="0 0 24 24" id="lock-alt"><rect width="14" height="10" x="5" y="11"/><path d="M12,3 L12,3 C14.7614237,3 17,5.23857625 17,8 L17,11 L7,11 L7,8 C7,5.23857625 9.23857625,3 12,3 Z"/><circle cx="12" cy="16" r="1"/></symbol><symbol viewBox="0 0 24 24" id="lock-open"><path d="M7,7.625 L7,7 C7,4.23857625 9.23857625,2 12,2 L12,2 C14.7614237,2 17,4.23857625 17,7 L17,11"/><rect width="14" height="10" x="5" y="11"/></symbol><symbol viewBox="0 0 24 24" id="lock"><rect width="14" height="10" x="5" y="11"/><path d="M12,3 L12,3 C14.7614237,3 17,5.23857625 17,8 L17,11 L7,11 L7,8 C7,5.23857625 9.23857625,3 12,3 Z"/></symbol><symbol viewBox="0 0 24 24" id="language"><circle cx="12" cy="12" r="10"/><path stroke-linecap="round" d="M12,22 C14.6666667,19.5757576 16,16.2424242 16,12 C16,7.75757576 14.6666667,4.42424242 12,2 C9.33333333,4.42424242 8,7.75757576 8,12 C8,16.2424242 9.33333333,19.5757576 12,22 Z"/><path stroke-linecap="round" d="M2.5 9L21.5 9M2.5 15L21.5 15"/></symbol><symbol viewBox="0 0 24 24" id="hdr"><path d="M18 12h1l2 3"/><path d="M7 9v6m3-6v6h2c1.333 0 2-1 2-3s-.667-3-2-3h-2zm7 6V9h3c.667 0 1 .5 1 1.5s-.333 1.5-1 1.5h-3M7 12H3m0-3v6"/></symbol><symbol viewBox="0 0 24 24" id="next-alt"><path d="M16 4L20 8L16 12"/><path d="M20 8H9.5C6.46243 8 4 10.4624 4 13.5V13.5C4 16.5376 6.46243 19 9.5 19H19"/></symbol><symbol viewBox="0 0 24 24" id="next"><path d="M17 11.5L6 18V5z"/><path d="M18 18V5"/></symbol><symbol viewBox="0 0 24 24" id="ok"><polyline points="4 13 9 18 20 7"/></symbol><symbol viewBox="0 0 24 24" id="ok-circle"><polyline points="7 13 10 16 17 9"/><circle cx="12" cy="12" r="10"/></symbol><symbol viewBox="0 0 24 24" id="plus"><path d="M20 12L4 12M12 4L12 20"/></symbol><symbol viewBox="0 0 24 24" id="pause"><rect width="4" height="16" x="5" y="4"/><rect width="4" height="16" x="15" y="4"/></symbol><symbol viewBox="0 0 24 24" id="paperclip"><path d="M7.93517339,13.7795989 L15.1617306,6.55304173 C16.03921,5.67631227 17.4656766,5.67631227 18.343156,6.55304173 C19.2206355,7.43052116 19.2206355,8.85773771 18.343156,9.73521714 L8.40091248,19.5477137 C6.93619681,21.0124294 4.56325242,21.0124294 3.09853675,19.5477137 C1.63382108,18.083748 1.63382108,15.7093037 3.09853675,14.245338 L12.9335328,4.53783896 C14.9839848,2.48738701 18.3094068,2.48738701 20.3568588,4.53783896 C22.4088107,6.58904088 22.4088107,9.91146301 20.3583588,11.961915 L13.2390491,19.0819746"/></symbol><symbol viewBox="0 0 24 24" id="print"><polygon points="17 14 17 21 7 21 7 14"/><polygon points="17 3 17 9 7 9 7 3"/><polyline points="7 18 3 18 3 9 3 9 21 9 21 18 17 18"/></symbol><symbol viewBox="0 0 24 24" id="share-android"><path d="M16 8L8 11 16 8zM16 16L8 13 16 16z"/><circle cx="6" cy="12" r="2"/><circle cx="18" cy="7" r="2"/><circle cx="18" cy="17" r="2"/></symbol><symbol viewBox="0 0 24 24" id="search"><path d="M14.4121122,14.4121122 L20,20"/><circle cx="10" cy="10" r="6"/></symbol><symbol viewBox="0 0 24 24" id="shift"><path d="M5,21 L19,21 L5,21 Z M16,12 L16,17 L8,17 L8,12 L3,12 L12,3 L21,12 L16,12 Z"/></symbol><symbol viewBox="0 0 24 24" id="sun"><circle cx="12" cy="12" r="4"/><path d="M12 5L12 3M12 21L12 19M5 12L2 12 5 12zM22 12L19 12 22 12zM16.9497475 7.05025253L19.0710678 4.92893219 16.9497475 7.05025253zM4.92893219 19.0710678L7.05025253 16.9497475 4.92893219 19.0710678zM16.9497475 16.9497475L19.0710678 19.0710678 16.9497475 16.9497475zM4.92893219 4.92893219L7.05025253 7.05025253 4.92893219 4.92893219z"/></symbol><symbol viewBox="0 0 24 24" id="thumb-up"><path d="M8,8.73984815 C8,8.26242561 8.17078432,7.80075162 8.4814868,7.43826541 L13.2723931,1.84887469 C13.7000127,1.34998522 14.4122932,1.20614658 15,1.5 C15.5737957,1.78689785 15.849314,2.45205792 15.6464466,3.06066017 L14,8 L18.6035746,8 C18.7235578,8 18.8432976,8.01079693 18.9613454,8.03226018 C20.0480981,8.22985158 20.7689058,9.27101818 20.5713144,10.3577709 L19.2985871,17.3577709 C19.1256814,18.3087523 18.2974196,19 17.3308473,19 L10,19 C8.8954305,19 8,18.1045695 8,17 L8,8.73984815 Z"/><path d="M4,18 L4,9"/></symbol><symbol viewBox="0 0 24 24" id="volume-loud"><path d="M13 5v14l-5-4H3V9h5z"/><path stroke-linecap="round" d="M13 14c1.5-1 1.5-3 0-4"/><path d="M16 16C18.0858253 13.9141747 18.0858253 10.0858253 16 8M18 19C21.98552 15.01448 22.0076803 9.00768033 18 5"/></symbol><symbol viewBox="0 0 24 24" id="thumb-down"><path d="M16,15.2601518 C16,15.7375744 15.8292157,16.1992484 15.5185132,16.5617346 L10.7276069,22.1511253 C10.2999873,22.6500148 9.58770685,22.7938534 9,22.5 C8.42620429,22.2131021 8.15068597,21.5479421 8.35355339,20.9393398 L10,16 L5.39642543,16 C5.27644223,16 5.15670242,15.9892031 5.03865456,15.9677398 C3.95190186,15.7701484 3.23109421,14.7289818 3.42868561,13.6422291 L4.70141289,6.64222912 C4.87431859,5.69124773 5.70258042,5 6.66915271,5 L14,5 C15.1045695,5 16,5.8954305 16,7 L16,15.2601518 Z"/><path d="M20,15 L20,6"/></symbol><symbol viewBox="0 0 24 24" id="turn-left"><path d="M4.71493213,9 L8.06176471,9 C14.65507,9 20,13.0983574 20,19.3875"/><polyline points="9 14 4 9 9 4 9 4"/></symbol><symbol viewBox="0 0 24 24" id="turn-right"><path d="M3.71493213,19.3875 C3.71493213,13.0983574 9.05986213,9 15.6531674,9 L19,9"/><polyline points="15 4 20 9 15 14 15 14"/></symbol><symbol viewBox="0 0 24 24" id="delete"><polygon points="20 18 9 18 3 12 9 6 20 6"/><path d="M12.1143819 10.1143819L15.8856181 13.8856181M12.1143819 13.8856181L15.8856181 10.1143819"/></symbol><symbol viewBox="0 0 24 24" id="diamond"><path d="M12 20L3 11M12 20L21 11M12 20L8 11M12 20L16 11M3 11L7 5M3 11H8M7 5L8 11M7 5H12M17 5L21 11M17 5L16 11M17 5H12M21 11H16M8 11H16M8 11L12 5M16 11L12 5"/></symbol><symbol viewBox="0 0 24 24" id="direction-left"><path d="M6 7H13.1667C13.1667 7 19 7 19 12.8333C19 18.6667 19 21 19 21"/><path d="M9 11L5 7L9 3"/></symbol><symbol viewBox="0 0 24 24" id="direction-right"><path d="M18 7H10.8333C10.8333 7 5 7 5 12.8333C5 18.6667 5 21 5 21"/><path d="M15 11L19 7L15 3"/></symbol><symbol viewBox="0 0 24 24" id="download"><path d="M12,3 L12,16"/><polyline points="7 12 12 17 17 12"/><path d="M20,21 L4,21"/></symbol><symbol viewBox="0 0 24 24" id="dolar"><path d="M12 4L12 6M12 18L12 20M15.5 8C15.1666667 6.66666667 14 6 12 6 9 6 8.5 7.95652174 8.5 9 8.5 13.140327 15.5 10.9649412 15.5 15 15.5 16.0434783 15 18 12 18 10 18 8.83333333 17.3333333 8.5 16"/></symbol></svg>